<svg xmlns="http://www.w3.org/2000/svg" viewBox="0 0 600 750"><rect width="600" height="750" fill="#EBB4AF"/><rect x="218" y="580.5" width="164" height="151.5" rx="14" fill="#FBF0E4" opacity="0.9"/><path d="M0 562.5 v187.5 a187.5 187.5 0 0 1 -187.5 -187.5 Z" fill="#6E7786"/><path d="M400 750.0 h187.5 a187.5 187.5 0 0 1 -187.5 187.5 Z" fill="#F7CD7B"/><path d="M400 187.5 h-187.5 a187.5 187.5 0 0 1 187.5 -187.5 Z" fill="#79A09F"/><path d="M400 187.5 h187.5 a187.5 187.5 0 0 1 -187.5 187.5 Z" fill="#FBF0E4"/><path d="M400 375.0 h-187.5 a187.5 187.5 0 0 1 187.5 -187.5 Z" fill="#6E7786"/><path d="M400 0.0 h-187.5 a187.5 187.5 0 0 1 187.5 -187.5 Z" fill="#F7CD7B"/><path d="M159 101 Q161.88 114.12 175 117 Q161.88 119.88 159 133 Q156.12 119.88 143 117 Q156.12 114.12 159 101 Z" fill="#FBF0E4"/><path d="M479 570 Q480.8 578.2 489 580 Q480.8 581.8 479 590 Q477.2 581.8 469 580 Q477.2 578.2 479 570 Z" fill="#FBF0E4"/><rect x="150" y="330" width="300" height="120" rx="16" fill="#FBF0E4" opacity="0.96"/><text x="300" y="378" text-anchor="middle" font-family="Georgia,serif" font-size="30" fill="#26272B">Tiny Inks</text><text x="300" y="416" text-anchor="middle" font-family="Georgia,serif" font-size="19" font-style="italic" fill="#6E7786">Pocket Journal</text></svg>